<svg xmlns="http://www.w3.org/2000/svg" width="32px" aria-hidden="true" role="img" viewBox="0 0 313.58 310.73"><path d="M313.47 134.09c1.23 35.47-7.52 65.41-9.71 72.93-6.28 21.49-19.43 66.48-60.45 89.82-44.11 25.1-95.37 10.88-139.69-1.42-15.33-4.25-29.7-9.89-44.23-19.33-8.37-5.44-23.83-15.7-37.17-34.95-2.8-4-16.13-23.79-20.72-53.66-3.5-22.89-.16-40.39 3.06-56.38 5.33-26.49 12-59.49 38-86.26a114.73 114.73 0 0 1 26.32-20.12q-1.17 2.89-2.36 5.79-22.71 54.92-32.78 90.57-5.9 20.7-5.89 37.66 0 50.17 39.39 63.39a64.8 64.8 0 0 0 22 3.74q15 0 31.63-6.32a75.59 75.59 0 0 0 18.61-10.28 62.94 62.94 0 0 0 14.11-14.49 33.53 33.53 0 0 0 5.95 8.23q6.32 6.48 16.53 6.47 17.1 0 33.49-22.42 3.16-4.32 7.33-10.93-6.75 18-14.08 35.8-6.9 2.44-15.39 5.17-11.92 4-23.57 8.48-18.4 7.2-26.88 16.1a34.39 34.39 0 0 0-10.07 24.59q0 16.23 10.93 23.72 9.92 6.9 25.3 6.89a46.61 46.61 0 0 0 13.37-2.15 55 55 0 0 0 31.62-23.86q12.22-19.12 30-63A199.4 199.4 0 0 0 299.69 153q5.12-6.91 13.78-18.91ZM100.16 29.79Q76.72 86.87 65.8 124q-8.19 28.47-8.19 48.16a76.5 76.5 0 0 0 1.29 14.37q2.58 13.38 9.92 16.68t12.5 3.3q18.84 0 48.59-18.25a79.43 79.43 0 0 0 19-15.85 76.29 76.29 0 0 1 3.29-21.24q10.22-34.93 23.58-68.86l7.62-19q1.29-3.45 7-3.45a26.25 26.25 0 0 1 10.28 2.37q5.53 2.37 7.91 6.25a14.18 14.18 0 0 1 2.41 7.31 18.21 18.21 0 0 1-1.29 6.33A751.49 751.49 0 0 0 184 156.44a84.86 84.86 0 0 0-3.59 23.29q0 13.23 6.18 13.22 7.47 0 23.43-26.3 17.25-28.6 26-49.31 5.33-12.65 11.07-29.76l8.05-24.15q1-3 6-3 8.63 0 17 6.33 5.89 4.61 5.9 9.2 0 3.16-9.06 30-16.4 48.74-29.9 84.67a166.91 166.91 0 0 0 37.09-33.92q9.63-11.94 27.89-36.66a8 8 0 0 1 2.14-2.05c-3.41-27.52-13.8-56.73-38.13-80.53-57.21-56-142.81-34.43-165.56-28Zm45.42 219.37a25.09 25.09 0 0 0-6.32 17.39q0 9.78 5.6 14.09a13.37 13.37 0 0 0 8 2.88q4.89 0 9.78-3.89 13.94-10.77 25.44-35.36l8.77-18.69q-26.44 9.21-29 10.21-15.52 5.9-22.27 13.37Z" style="fill:#2c3b23"/></svg>